<?xml version="1.0" standalone="no"?>
<!DOCTYPE svg PUBLIC "-//W3C//DTD SVG 20010904//EN"
 "http://www.w3.org/TR/2001/REC-SVG-20010904/DTD/svg10.dtd">
<svg version="1.0" xmlns="http://www.w3.org/2000/svg"
 width="500.000000pt" height="500.000000pt" viewBox="0 0 500.000000 500.000000"
 preserveAspectRatio="xMidYMid meet">
<metadata>
Created by potrace 1.14, written by Peter Selinger 2001-2017
</metadata>
<g transform="translate(0.000000,500.000000) scale(0.100000,-0.100000)"
fill="#000000" stroke="none">
<path d="M1283 3273 c2 -33 6 -38 27 -41 98 -10 143 -39 154 -96 4 -19 7 -129
8 -245 l0 -211 99 0 c55 0 99 3 100 8 0 4 2 106 3 227 4 281 11 299 130 314
50 6 51 7 54 43 l3 37 -289 1 -290 0 1 -37z"/>
<path d="M2448 3302 c-2 -4 -3 -20 -3 -37 0 -29 2 -30 48 -33 27 -1 62 -9 79
-18 53 -28 60 -63 62 -311 l1 -223 100 0 100 0 1 193 c1 219 6 275 29 311 18
28 63 46 118 48 21 1 38 5 38 10 1 4 2 22 3 38 l1 30 -287 0 c-158 -1 -289 -4
-290 -8z"/>
<path d="M3240 3272 c0 -37 2 -39 31 -40 39 -1 79 -27 79 -51 0 -24 -27 -60
-223 -296 l-167 -200 67 -3 c36 -2 69 1 72 6 17 26 403 465 430 488 38 34 87
55 132 57 38 2 39 3 39 40 l0 37 -230 0 -230 0 0 -38z"/>
<path d="M1480 2532 l0 -72 30 0 c17 0 30 4 30 8 0 5 -10 8 -22 8 -21 -1 -23
4 -24 56 0 32 -4 61 -7 65 -4 3 -7 -26 -7 -65z"/>
<path d="M2149 2584 c-4 -92 -3 -124 6 -121 6 2 9 17 7 33 l-3 29 23 -32 c13
-18 27 -33 32 -33 5 0 1 10 -8 23 -28 39 -29 48 -7 77 31 42 25 51 -7 12 l-28
-33 -2 27 c-2 33 -12 45 -13 18z"/>
<path d="M2391 2575 c-6 -16 -19 -47 -28 -68 -9 -20 -13 -40 -9 -44 4 -4 9 2
12 13 7 28 57 27 79 -1 16 -20 16 -19 10 3 -4 13 -17 47 -30 75 l-23 52 -11
-30z m31 -47 c7 -15 4 -18 -16 -18 -24 0 -24 2 -14 32 7 20 13 27 16 18 3 -8
9 -23 14 -32z"/>
<path d="M2668 2554 l-3 -49 -29 43 c-16 23 -32 42 -35 42 -4 0 -6 -29 -6 -65
0 -75 12 -88 17 -17 l3 47 30 -47 c17 -27 32 -48 35 -48 8 0 6 127 -2 135 -4
4 -8 -15 -10 -41z"/>
<path d="M2990 2588 c0 -4 7 -8 15 -8 12 0 15 -13 15 -61 0 -33 4 -58 9 -55 4
3 7 28 6 57 -2 43 1 52 19 59 25 10 23 11 -26 14 -21 1 -38 -2 -38 -6z"/>
<path d="M3205 2592 c-3 -3 -5 -34 -5 -69 l0 -63 42 0 c23 0 38 3 34 7 -4 4
-19 7 -33 8 -20 0 -27 5 -28 23 -1 19 3 22 32 22 18 0 33 4 33 8 0 5 -14 8
-32 8 -26 -1 -32 3 -33 22 -1 19 3 22 32 22 18 0 33 3 33 8 0 8 -67 11 -75 4z"/>
<path d="M3446 2535 c-15 -37 -24 -70 -21 -73 3 -3 8 3 11 14 8 29 64 31 71 3
3 -10 10 -19 15 -19 11 0 5 22 -26 92 l-23 51 -27 -68z m46 -7 c7 -15 4 -18
-16 -18 -24 0 -24 2 -14 32 7 20 13 27 16 18 3 -8 9 -23 14 -32z"/>
<path d="M1688 2525 c-15 -36 -22 -65 -18 -65 5 0 11 8 14 18 9 26 63 28 71 2
3 -11 10 -20 16 -20 7 0 1 21 -38 118 -10 23 -20 12 -45 -53z m42 26 c0 -5 3
-16 6 -25 4 -12 0 -16 -16 -16 -16 0 -20 4 -16 16 3 9 6 20 6 25 0 5 5 9 10 9
6 0 10 -4 10 -9z"/>
<path d="M1914 2525 c0 -75 13 -88 18 -17 l3 47 25 -42 c14 -24 30 -43 35 -43
6 0 10 27 11 60 0 33 -3 60 -8 60 -4 0 -8 -21 -8 -47 l0 -48 -31 48 c-17 26
-34 47 -38 47 -4 0 -7 -29 -7 -65z"/>
<path d="M1475 2359 c-2 -3 -5 -82 -5 -176 -2 -241 -14 -256 -208 -273 -1 0
-2 -16 0 -35 l2 -35 888 0 c488 0 888 3 889 8 7 63 9 61 -58 67 -130 13 -145
42 -147 298 l-1 152 -98 0 c-53 0 -97 -2 -98 -5 -1 -3 -2 -79 -4 -170 -3 -194
-14 -232 -69 -255 -65 -27 -66 -26 -58 78 4 50 7 117 7 147 0 55 0 55 -32 56
-30 0 -32 -3 -53 -65 -58 -176 -141 -221 -407 -222 -185 0 -255 15 -300 68
-37 42 -47 90 -47 230 -1 73 -3 133 -6 134 -21 5 -192 3 -195 -2z"/>
<path d="M3115 2361 c-2 -2 52 -72 120 -156 137 -168 165 -210 165 -242 0 -27
-20 -39 -78 -47 -57 -7 -62 -11 -59 -46 l2 -30 293 0 293 0 -3 36 c-3 35 -5
37 -43 41 -22 2 -58 15 -80 28 -42 24 -46 29 -134 135 -76 93 -128 155 -188
224 l-51 61 -117 0 c-64 0 -118 -1 -120 -4z"/>
</g>
</svg>
